<?xml version="1.0" encoding="utf-8"?>
<!-- Generator: Adobe Illustrator 22.1.0, SVG Export Plug-In . SVG Version: 6.00 Build 0)  -->
<svg version="1.1" id="图层_1" xmlns="http://www.w3.org/2000/svg" xmlns:xlink="http://www.w3.org/1999/xlink" x="0px" y="0px"
	 viewBox="0 0 200 60" style="enable-background:new 0 0 200 60;" xml:space="preserve">
<style type="text/css">
	.st0{fill:#EB5648;}
	.st1{fill:url(#SVGID_1_);}
</style>
<g>
	<path class="st0" d="M4.8,35.8c0,1.8,0.4,3.5,1.1,5.1C5.3,39.5,4.9,37.8,4.8,35.8z"/>
	<path class="st0" d="M29.1,43.1c-2.7,3.8-6.4,4.6-11.8,4.8c0,0-8.2,0.5-11.3-7.1c0,0,0,0,0,0c-0.6-1.4-1-3.1-1.1-5.1V17.3h6.6v19.2
		c0,0.9,0.2,1.8,0.5,2.6c0.5,1.3,1.5,2.3,2.8,2.7c0.1,0.1,1.9,0.6,4,0.3c1.2-0.1,2.7-0.2,3.9-1.8V29.3l6.3-9.6
		C29,19.6,29.1,41.6,29.1,43.1z"/>
	<linearGradient id="SVGID_1_" gradientUnits="userSpaceOnUse" x1="17.0597" y1="17.849" x2="28.1855" y2="17.849">
		<stop  offset="0" style="stop-color:#FEDA04"/>
		<stop  offset="1" style="stop-color:#FEA043"/>
	</linearGradient>
	<polygon class="st1" points="17.1,27.3 17.1,8.4 28.2,8.4 	"/>
	<g>
		<path d="M43.3,20.6v5.5h4.4v3.5h-4.4v9.1c0,2.4,0.7,3.4,2.4,3.4c0.7,0,1.3-0.1,1.7-0.2l0.1,3.6c-0.7,0.3-1.9,0.5-3.3,0.5
			c-1.7,0-3.1-0.5-4-1.5c-1-1.1-1.5-2.8-1.5-5.4v-9.5H36v-3.5h2.6v-4.3L43.3,20.6z"/>
		<path d="M69.4,35.7c0,7.4-4.7,10.3-9.1,10.3c-5.1,0-8.9-3.7-8.9-10c0-6.6,4-10.3,9.2-10.3C65.9,25.7,69.4,29.6,69.4,35.7z
			 M56.2,35.8c0,3.6,1.5,6.6,4.2,6.6c2.6,0,4.1-3.1,4.1-6.7c0-3-1.1-6.6-4.1-6.6C57.3,29.2,56.2,32.7,56.2,35.8z"/>
		<path d="M74.8,31.8c0-2.2-0.1-4-0.2-5.7h4.1l0.2,2.7H79c0.9-1.5,2.6-3.1,5.6-3.1c2.4,0,4.2,1.3,5,3.4h0.1c0.6-1,1.4-1.8,2.3-2.3
			c1-0.7,2.1-1,3.6-1c3.2,0,6,2.3,6,8.1v11.8h-4.6V34.5c0-3-0.9-4.9-3.1-4.9c-1.5,0-2.6,1.1-3.1,2.5c-0.1,0.4-0.2,1.1-0.2,1.6v11.9
			h-4.6V33.9c0-2.4-0.8-4.4-3-4.4c-1.6,0-2.8,1.3-3.2,2.7c-0.2,0.5-0.2,1-0.2,1.6v11.8h-4.6V31.8z"/>
		<path d="M118.2,45.6l-0.3-2.1h-0.1c-1.1,1.5-3,2.5-5.3,2.5c-3.6,0-5.8-2.7-5.8-5.8c0-4.9,4.3-7.3,10.7-7.3v-0.4
			c0-1.5-0.6-3.4-3.6-3.4c-1.8,0-3.5,0.6-4.8,1.3l-0.9-3.1c1.3-0.8,3.7-1.6,6.6-1.6c5.9,0,7.5,3.8,7.5,8v7.3c0,1.7,0.1,3.4,0.3,4.6
			H118.2z M117.6,35.9c-2.9,0-6.2,0.6-6.2,3.7c0,2,1.2,2.9,2.6,2.9c1.7,0,3-1.1,3.4-2.6c0.1-0.3,0.1-0.7,0.1-1V35.9z"/>
		<path d="M128.6,32.1c0-2.4-0.1-4.3-0.2-6h4.1l0.2,3.5h0.1c0.9-2.5,3-3.9,4.9-3.9c0.5,0,0.7,0,1.1,0.1v4.5
			c-0.4-0.1-0.8-0.1-1.3-0.1c-2.1,0-3.7,1.4-4.1,3.6c-0.1,0.4-0.1,1-0.1,1.6v10.2h-4.7V32.1z"/>
		<path d="M148.2,34.7L148.2,34.7c0.5-0.8,1-1.6,1.5-2.3l4.3-6.3h5.5l-6.5,8l7.4,11.5h-5.7l-5-8.6l-1.5,1.9v6.7h-4.7V17.3h4.7V34.7z
			"/>
		<path d="M167.1,37.1c0.1,3.8,2.6,5.2,5.5,5.2c2,0,3.5-0.3,4.8-0.8l0.7,3.3c-1.5,0.7-3.7,1.1-6.2,1.1c-5.9,0-9.3-3.8-9.3-9.8
			c0-5.7,3.2-10.4,8.9-10.4c5.7,0,7.7,4.8,7.7,9.3c0,1-0.1,1.7-0.2,2.1H167.1z M174.7,33.8c0-2.2-0.8-4.8-3.6-4.8
			c-2.7,0-3.8,2.7-4,4.8H174.7z"/>
		<path d="M189.9,20.6v5.5h4.4v3.5h-4.4v9.1c0,2.4,0.7,3.4,2.4,3.4c0.7,0,1.3-0.1,1.7-0.2l0.1,3.6c-0.7,0.3-1.9,0.5-3.3,0.5
			c-1.7,0-3.1-0.5-4-1.5c-1-1.1-1.5-2.8-1.5-5.4v-9.5h-2.6v-3.5h2.6v-4.3L189.9,20.6z"/>
	</g>
</g>
</svg>
